Coordinates
version=1
nRows=11
nColumns=40
inDegrees=yes

Units are S.I. units (second, meters, Newtons, ...)
Angles are in degrees.

endheader
time	pelvis_tilt	pelvis_list	pelvis_rotation	pelvis_tx	pelvis_ty	pelvis_tz	hip_flexion_r	hip_adduction_r	hip_rotation_r	knee_angle_r	knee_angle_r_beta	ankle_angle_r	subtalar_angle_r	mtp_angle_r	hip_flexion_l	hip_adduction_l	hip_rotation_l	knee_angle_l	knee_angle_l_beta	ankle_angle_l	subtalar_angle_l	mtp_angle_l	lumbar_extension	lumbar_bending	lumbar_rotation	arm_flex_r	arm_add_r	arm_rot_r	elbow_flex_r	pro_sup_r	wrist_flex_r	wrist_dev_r	arm_flex_l	arm_add_l	arm_rot_l	elbow_flex_l	pro_sup_l	wrist_flex_l	wrist_dev_l
     57.11128571	     -6.06892321	     -6.28264549	      7.27596021	      1.08479932	      0.91478479	      0.50089506	     -2.11938829	      5.81278034	    -19.44111687	      6.50984192	      6.50984192	     16.90643120	      5.88308871	     -4.07236248	     35.08369369	     -7.12012409	     -4.37902125	     14.49128906	     14.49128906	      4.98386861	     -5.26198764	      8.41492287	     -8.45845457	      7.11675747	      3.52384015	     55.49869322	    -15.14532482	     -8.07441334	     62.42484047	     45.37246899	      0.00000000	      0.00000000	    -19.61743534	     -6.21953340	      9.96358184	     23.48264714	     44.59229297	      0.00000000	      0.00000000
     57.12257143	     -6.08539155	     -6.14810369	      7.24593286	      1.08635284	      0.91322036	      0.49870345	     -2.57215250	      5.49010678	    -19.25994208	      7.13623584	      7.13623584	     17.56824301	      5.59352410	     -3.96584460	     34.83913202	     -6.82067638	     -4.65151828	     15.49647625	     15.49647625	      4.12250074	     -6.11743880	      7.75991599	     -8.14809925	      6.99102349	      3.10058619	     55.93894525	    -14.62346577	     -7.94134486	     63.81135303	     45.32426186	      0.00000000	      0.00000000	    -20.27472888	     -6.05964270	     10.02073951	     23.22093416	     44.59134974	      0.00000000	      0.00000000
     57.13385714	     -6.06937760	     -5.94325985	      7.16542544	      1.08816075	      0.91183808	      0.49636628	     -3.08658026	      5.08249624	    -18.96376844	      7.78698651	      7.78698651	     18.47356333	      5.29509636	     -2.79125090	     34.33450908	     -6.42277548	     -4.56226976	     16.20947328	     16.20947328	      2.13179448	     -7.67890047	      5.12520184	     -7.92613077	      6.79499638	      3.35466530	     55.35830558	    -14.94023721	     -7.91150639	     67.34654885	     45.21468797	      0.00000000	      0.00000000	    -20.59218025	     -6.06083912	      9.85799379	     23.41641023	     44.68650587	      0.00000000	      0.00000000
     57.14514286	     -6.04344637	     -5.78263551	      7.05292174	      1.08998361	      0.91053895	      0.49409542	     -3.57358982	      4.69549403	    -18.74410945	      8.47589876	      8.47589876	     19.05868432	      5.09426921	     -2.65120854	     34.11188922	     -6.18067968	     -4.50676494	     17.54345505	     17.54345505	      1.17233435	     -8.70827741	      4.57151882	     -7.66556010	      6.59093931	      3.02300240	     55.27413472	    -14.58529411	     -7.82268486	     68.90085678	     45.16420744	      0.00000000	      0.00000000	    -20.92313209	     -5.98197768	      9.85208153	     23.20245793	     44.70655468	      0.00000000	      0.00000000
     57.15642857	     -5.96321022	     -5.55032191	      6.93789548	      1.09193462	      0.90955402	      0.49161316	     -4.07775267	      4.19546114	    -18.47237820	      9.29265318	      9.29265318	     19.77466032	      4.90476443	     -1.90622523	     33.67804390	     -5.80305372	     -4.09588612	     18.58207413	     18.58207413	     -0.11131501	    -10.21903042	      3.31338977	     -7.54410949	      6.36484986	      3.44160333	     54.20081537	    -15.14176738	     -7.98572542	     72.68009400	     45.06026310	      0.00000000	      0.00000000	    -20.72056418	     -6.04612169	      9.64275358	     23.12653770	     44.81660511	      0.00000000	      0.00000000
     57.16771429	     -5.80741504	     -5.24280116	      6.80360595	      1.09399934	      0.90901841	      0.48909495	     -4.80129546	      3.65426755	    -18.25558498	      9.81672256	      9.81672256	     19.99840937	      4.78106753	     -1.96882290	     33.28445036	     -5.48299841	     -4.06057344	     19.89298981	     19.89298981	     -0.43763985	    -10.81039952	      3.19790483	     -7.39346778	      6.02205584	      3.24327525	     53.94404481	    -14.85647404	     -7.91164726	     73.14139715	     45.04242942	      0.00000000	      0.00000000	    -20.63400167	     -5.99841580	      9.65294705	     23.08752081	     44.82109128	      0.00000000	      0.00000000
     57.17900000	     -5.88194589	     -5.09406697	      6.67735853	      1.09560033	      0.90825952	      0.48645722	     -4.73672835	      3.07040579	    -17.98677411	     11.33235241	     11.33235241	     20.47820921	      4.33726507	     -2.01301387	     33.24372796	     -5.12713485	     -3.24797000	     21.19048887	     21.19048887	     -0.71107204	    -12.38697163	      3.24384815	     -7.22444368	      5.94347552	      3.58535058	     52.33000105	    -15.32114359	     -8.23178898	     78.18358013	     44.90321788	      0.00000000	      0.00000000	    -20.03486592	     -6.00388137	      9.44525980	     22.82086729	     44.92847165	      0.00000000	      0.00000000
     57.19028571	     -5.65745500	     -4.85319009	      6.59279565	      1.09753688	      0.90851609	      0.48374716	     -5.36950001	      2.53835273	    -17.81719868	     12.09496075	     12.09496075	     20.41707396	      4.17113266	     -2.10617750	     32.78880774	     -4.85443519	     -3.01877096	     22.36213200	     22.36213200	     -0.46869203	    -12.88975873	      3.00866416	     -7.17807715	      5.68550879	      3.31092852	     51.70522419	    -15.01925321	     -8.14648550	     78.53060604	     44.88782500	      0.00000000	      0.00000000	    -19.58283494	     -5.92640153	      9.45922838	     22.89464129	     44.93841253	      0.00000000	      0.00000000
     57.20157143	     -5.65591416	     -4.71055082	      6.43735353	      1.09888839	      0.90843383	      0.48101465	     -5.05538708	      1.84339256	    -17.54754414	     14.15999368	     14.15999368	     20.52292710	      3.62359478	     -2.75458478	     32.78771668	     -4.61231996	     -2.53547964	     23.81758356	     23.81758356	      0.05670293	    -13.85481483	      2.94772832	     -7.10835204	      5.61168759	      2.93120575	     50.97321549	    -14.62629590	     -8.12618070	     80.67441531	     44.81909804	      0.00000000	      0.00000000	    -19.17164202	     -5.83607640	      9.43528324	     22.78308029	     44.96372975	      0.00000000	      0.00000000
     57.21285714	     -5.73766530	     -4.44874095	      6.31772784	      1.10002347	      0.90885198	      0.47805606	     -4.50553852	      0.96020537	    -17.27897334	     16.46190492	     16.46190492	     20.26728080	      2.82006693	     -3.88928331	     32.61663343	     -4.20630703	     -2.19004610	     24.76781604	     24.76781604	      0.74025652	    -14.61380782	      3.45062219	     -6.97236579	      5.39229627	      2.93940503	     49.20531249	    -14.73308759	     -8.30264096	     83.85519179	     44.72447010	      0.00000000	      0.00000000	    -18.17059565	     -5.80010467	      9.31875787	     22.75984425	     45.02500169	      0.00000000	      0.00000000
     57.22414286	     -5.63825208	     -4.27730912	      6.22512501	      1.10133561	      0.91003505	      0.47504401	     -4.42584557	      0.31073680	    -16.96378237	     18.04278373	     18.04278373	     18.77560680	      1.84484578	     -7.07172869	     32.19145574	     -3.90931746	     -1.87874446	     25.66142285	     25.66142285	      2.38578728	    -14.88326486	      5.35648679	     -7.12462367	      5.33143991	      4.39271294	     46.03239073	    -16.42792407	     -9.69022204	     89.31084461	     44.62500124	      0.00000000	      0.00000000	    -16.05757046	     -5.94129382	      9.03083865	     22.03224809	     45.18388021	      0.00000000	      0.00000000
